<svg width="160" height="160" viewBox="0 0 160 160" fill="none" xmlns="http://www.w3.org/2000/svg">
<g clip-path="url(#clip0_14_106)">
<path d="M80.0001 154.93C121.383 154.93 154.93 121.382 154.93 80C154.93 38.6175 121.383 5.07043 80.0001 5.07043C38.6177 5.07043 5.07056 38.6175 5.07056 80C5.07056 121.382 38.6177 154.93 80.0001 154.93Z" stroke="white" stroke-width="10.1408"/>
<path d="M119.578 115.577V45.9155C119.578 41.9211 117.38 37.7296 110.789 37.7296C105.803 37.7296 103.803 39.9267 101.611 44.3155L80.0508 89.2338H79.8536L58.0902 44.3155C55.893 39.9267 53.8987 37.7465 48.9071 37.7465C42.3212 37.7465 40.124 41.9211 40.124 45.9155V115.577C40.124 119.375 43.1212 121.572 46.7156 121.572C49.9043 121.572 53.4761 119.375 53.4761 115.577V63.6619H53.679L73.4649 104C74.8564 106.817 76.6592 108.394 79.8536 108.394C83.048 108.394 84.8395 106.794 86.2367 104L106 63.6619H106.203V115.561C106.203 119.358 109.792 121.555 112.992 121.555C116.58 121.555 119.578 119.358 119.578 115.561" fill="white"/>
</g>
<defs>
<clipPath id="clip0_14_106">
<rect width="160" height="160" fill="white"/>
</clipPath>
</defs>
</svg>
