<svg width="160" height="160" viewBox="0 0 160 160" fill="none" xmlns="http://www.w3.org/2000/svg">
<g clip-path="url(#clip0_14_100)">
<path d="M80.2 0C36 0 0 36 0 80.4C0 124.2 36 160 80.2 160C124.4 160 160 124.6 160 80.4C160 36 122.8 0 80.2 0ZM80.2 149C42.2 149 11 118.2 11 80.4C11 42.2 42.2 10.8 80.2 10.8C118 10.8 149 42.4 149 80.4C149 118 118 149 80.2 149Z" fill="white"/>
<path d="M127.8 83C133 80.4 137.4 75.8 137.4 67.6C137.4 56.8 129.4 51.8 121.6 51.8H106.6C103.8 51.8 102.2 54 102.2 56.4V103.4C102.2 106.2 105 107.6 107.6 107.6C110.6 107.6 113 106.2 113 103.4V85.2H117.6L126.6 105.4C127.4 107 128.8 107.6 130.4 107.6C133.6 107.6 138.2 104.6 136.4 101L127.8 83ZM116.2 77.2H113V61H116.8C121.8 61 126.2 63.2 126.2 68.8C126.2 75.6 120 77.2 116.2 77.2Z" fill="white"/>
<path d="M96.7999 102.4C96.7999 104.6 95.1999 107.4 92.3999 107.4H71.7999C69.1999 107.4 66.3999 106 66.3999 103.2V56.4C66.3999 54 67.9999 51.8 70.7999 51.8H91.1999C93.9999 51.8 95.5999 54.4 95.5999 56.8C95.5999 59 93.9999 61.8 91.1999 61.8H77.1999V74.4H89.7999C92.5999 74.4 94.1999 76.6 94.1999 79C94.1999 81.2 92.5999 83.6 89.7999 83.6H77.1999V97.4H92.3999C95.1999 97.4 96.7999 100 96.7999 102.4Z" fill="white"/>
<path d="M50.4001 83C55.6001 80.4 60 75.8 60 67.6C60 56.8 52.0001 51.8 44.2001 51.8H29.2001C26.4001 51.8 24.8 54 24.8 56.4V103.4C24.8 106.2 27.6001 107.6 30.2001 107.6C33.2001 107.6 35.6 106.2 35.6 103.4V85.2H40.2001L49.2001 105.4C50.0001 107 51.4 107.6 53 107.6C56.2 107.6 60.8 104.6 59 101L50.4001 83ZM38.8 77.2H35.6V61H39.4001C44.4001 61 48.8 63.2 48.8 68.8C48.8 75.6 42.6 77.2 38.8 77.2Z" fill="white"/>
</g>
<defs>
<clipPath id="clip0_14_100">
<rect width="160" height="160" fill="white"/>
</clipPath>
</defs>
</svg>
