<svg width="160" height="160" viewBox="0 0 160 160" fill="none" xmlns="http://www.w3.org/2000/svg">
<g clip-path="url(#clip0_14_109)">
<path d="M117.4 48.4C117.4 51.2 115.4 54.6 111.8 54.6H87.4001V120.2C87.4001 123.8 83.8 125.8 80 125.8C76.6 125.8 72.8001 123.8 72.8001 120.2V54.6H48.4001C44.8001 54.6 42.8 51.2 42.8 48.4C42.8 45.2 44.8001 42.2 48.4001 42.2H111.8C115.4 42.2 117.4 45.2 117.4 48.4Z" fill="white"/>
<path d="M79.8 0C35.6 0 0 35.8 0 80.2C0 124.4 35.6 160 79.8 160C124.2 160 160 124.4 160 80.2C160 35.8 124.2 0 79.8 0ZM79.8 148.2C42.2 148.2 11.8 117.8 11.8 80.2C11.8 42.4 42.2 11.8 79.8 11.8C117.6 11.8 148.2 42.4 148.2 80.2C148.2 117.8 117.6 148.2 79.8 148.2Z" fill="white"/>
</g>
<defs>
<clipPath id="clip0_14_109">
<rect width="160" height="160" fill="white"/>
</clipPath>
</defs>
</svg>
